<svg width="64" height="64" viewBox="0 0 64 64" fill="none" xmlns="http://www.w3.org/2000/svg">
  <!-- Network of people -->
  <circle cx="20" cy="16" r="4" fill="#EC4899" stroke="#BE185D" stroke-width="2"/>
  <circle cx="44" cy="16" r="4" fill="#EC4899" stroke="#BE185D" stroke-width="2"/>
  <circle cx="32" cy="32" r="4" fill="#EC4899" stroke="#BE185D" stroke-width="2"/>
  <circle cx="16" cy="48" r="4" fill="#EC4899" stroke="#BE185D" stroke-width="2"/>
  <circle cx="48" cy="48" r="4" fill="#EC4899" stroke="#BE185D" stroke-width="2"/>
  
  <!-- Bodies -->
  <rect x="18" y="22" width="4" height="8" rx="1" fill="#EC4899"/>
  <rect x="42" y="22" width="4" height="8" rx="1" fill="#EC4899"/>
  <rect x="30" y="38" width="4" height="8" rx="1" fill="#EC4899"/>
  <rect x="14" y="54" width="4" height="6" rx="1" fill="#EC4899"/>
  <rect x="46" y="54" width="4" height="6" rx="1" fill="#EC4899"/>
  
  <!-- Connection lines -->
  <path d="M24 20l8 8M40 20l-8 8M28 36l-8 8M36 36l8 8" stroke="#6366F1" stroke-width="2" stroke-linecap="round"/>
  
  <!-- Plus signs -->
  <path d="M52 12h4M54 10v4" stroke="#22C55E" stroke-width="2" stroke-linecap="round"/>
  <path d="M8 44h4M10 42v4" stroke="#22C55E" stroke-width="2" stroke-linecap="round"/>
</svg>
