<svg width="64" height="64" viewBox="0 0 64 64" fill="none" xmlns="http://www.w3.org/2000/svg">
  <!-- Three people -->
  <circle cx="20" cy="18" r="5" fill="#10B981" stroke="#047857" stroke-width="2"/>
  <circle cx="32" cy="18" r="5" fill="#10B981" stroke="#047857" stroke-width="2"/>
  <circle cx="44" cy="18" r="5" fill="#10B981" stroke="#047857" stroke-width="2"/>
  
  <!-- Bodies -->
  <path d="M15 30c0-3 2-5 5-5s5 2 5 5v8H15v-8z" fill="#10B981" stroke="#047857" stroke-width="1"/>
  <path d="M27 30c0-3 2-5 5-5s5 2 5 5v8H27v-8z" fill="#10B981" stroke="#047857" stroke-width="1"/>
  <path d="M39 30c0-3 2-5 5-5s5 2 5 5v8H39v-8z" fill="#10B981" stroke="#047857" stroke-width="1"/>
  
  <!-- Presentation board -->
  <rect x="10" y="44" width="44" height="16" rx="2" fill="#3B82F6" stroke="#1D4ED8" stroke-width="2"/>
  <line x1="16" y1="50" x2="36" y2="50" stroke="#FFFFFF" stroke-width="2" stroke-linecap="round"/>
  <line x1="16" y1="54" x2="32" y2="54" stroke="#FFFFFF" stroke-width="2" stroke-linecap="round"/>
  
  <!-- Pointer/arrow -->
  <path d="M42 48l6 4-6 4" stroke="#FFFFFF" stroke-width="2" fill="none" stroke-linecap="round" stroke-linejoin="round"/>
</svg>
